<svg width="14" height="14" viewBox="0 0 14 14" fill="none" xmlns="http://www.w3.org/2000/svg">
<path d="M7.83396 5.75597C7.51813 5.75597 7.27341 6.0007 7.27341 6.30284C7.27341 6.60499 7.51813 6.84972 7.83396 6.84972C8.12243 6.84972 8.36716 6.60499 8.36716 6.30284C8.36716 6.0007 8.12243 5.75597 7.83396 5.75597ZM4.00583 5.75597C3.69001 5.75597 3.44528 6.0007 3.44528 6.30284C3.44528 6.60499 3.69001 6.84972 4.00583 6.84972C4.29431 6.84972 4.53903 6.60499 4.53903 6.30284C4.53903 6.0007 4.29431 5.75597 4.00583 5.75597Z" fill="black" fill-opacity="0.88"/>
<path d="M12.223 4.71643C11.5653 3.81409 10.6466 3.21116 9.63898 2.93909V2.94046C9.40519 2.68069 9.14132 2.44143 8.84601 2.22815C6.60792 0.601197 3.46613 1.09749 1.83234 3.33557C0.515736 5.15393 0.57179 7.59983 1.91437 9.33753L1.92531 11.1504C1.92531 11.1942 1.93214 11.2379 1.94581 11.2789C2.01827 11.51 2.26437 11.6371 2.49406 11.5647L4.22492 11.0192C4.68292 11.1819 5.15597 11.2748 5.62628 11.3008L5.61945 11.3063C6.83761 12.1936 8.43449 12.4602 9.89874 11.9762L11.6364 12.5422C11.6802 12.5559 11.7253 12.5641 11.7718 12.5641C12.0138 12.5641 12.2093 12.3686 12.2093 12.1266V10.2946C13.4138 8.6594 13.4452 6.39944 12.223 4.71643ZM4.41632 10.0485L4.25226 9.9801L2.89874 10.4039L2.88507 8.98206L2.7757 8.85901C1.61906 7.44807 1.54249 5.41507 2.62531 3.92346C3.94327 2.11604 6.46984 1.71682 8.27179 3.02112C10.0792 4.33499 10.4798 6.85745 9.17413 8.65393C8.07902 10.1565 6.11847 10.7116 4.41632 10.0485ZM11.3206 9.81604L11.2112 9.95276L11.2249 11.3746L9.88507 10.9235L9.72101 10.9918C8.95538 11.2762 8.13917 11.2994 7.38312 11.0875L7.38038 11.0862C8.39074 10.7758 9.30675 10.1469 9.9671 9.24182C11.0116 7.80217 11.1812 5.99339 10.5741 4.4512L10.5823 4.45667C10.8968 4.68225 11.1853 4.96389 11.43 5.30432C12.4226 6.66604 12.3665 8.51995 11.3206 9.81604Z" fill="black" fill-opacity="0.88"/>
<path d="M5.91989 5.75597C5.60407 5.75597 5.35935 6.0007 5.35935 6.30284C5.35935 6.60499 5.60407 6.84972 5.91989 6.84972C6.20837 6.84972 6.4531 6.60499 6.4531 6.30284C6.4531 6.0007 6.20837 5.75597 5.91989 5.75597Z" fill="black" fill-opacity="0.88"/>
</svg>
