<svg width="16" height="16" viewBox="0 0 16 16" fill="none" xmlns="http://www.w3.org/2000/svg">
<path fill-rule="evenodd" clip-rule="evenodd" d="M13.1404 1.82675C13.1407 1.82675 13.1411 1.82711 13.1418 1.82782L14.172 2.85818C14.1727 2.85872 14.1729 2.85907 14.1731 2.85961C14.1732 2.85996 14.1732 2.86033 14.1731 2.86068C14.1731 2.86122 14.1727 2.86157 14.172 2.86229L9.0345 7.99979L14.172 13.1373C14.1727 13.138 14.1729 13.1384 14.1731 13.1389C14.1732 13.1393 14.1732 13.1397 14.1731 13.1401C14.1731 13.1405 14.1727 13.1409 14.172 13.1416L13.1416 14.1718C13.1411 14.1725 13.1407 14.1726 13.1404 14.1728C13.14 14.1729 13.1395 14.1729 13.1391 14.1728C13.1386 14.1728 13.1382 14.1725 13.1375 14.1718L8.00003 9.03425L2.86253 14.1718C2.86182 14.1725 2.86146 14.1726 2.86093 14.1728C2.86052 14.1729 2.86008 14.1729 2.85968 14.1728C2.85932 14.1728 2.85896 14.1725 2.85825 14.1718L1.82807 13.1414C1.82735 13.1409 1.82718 13.1405 1.827 13.1401C1.82687 13.1397 1.82687 13.1393 1.827 13.1389C1.827 13.1384 1.82735 13.138 1.82807 13.1373L6.96557 7.99979L1.82807 2.86229C1.82735 2.86157 1.82718 2.86122 1.827 2.86068C1.82687 2.86027 1.82687 2.85984 1.827 2.85943C1.827 2.85907 1.82735 2.85872 1.82807 2.858L2.85843 1.82782C2.85896 1.82711 2.85932 1.82693 2.85968 1.82675C2.86008 1.82663 2.86052 1.82663 2.86093 1.82675C2.86146 1.82675 2.86182 1.82711 2.86253 1.82782L8.00003 6.96532L13.1375 1.82782C13.1382 1.82711 13.1386 1.82693 13.1391 1.82675C13.1395 1.82663 13.14 1.82663 13.1404 1.82675Z"/>
</svg>
