<svg width="14" height="14" viewBox="0 0 14 14" fill="none" xmlns="http://www.w3.org/2000/svg">
<path d="M11.375 0.875H4.04688C3.98672 0.875 3.9375 0.924219 3.9375 0.984375V1.75C3.9375 1.81016 3.98672 1.85938 4.04688 1.85938H10.8281V11.2656C10.8281 11.3258 10.8773 11.375 10.9375 11.375H11.7031C11.7633 11.375 11.8125 11.3258 11.8125 11.2656V1.3125C11.8125 1.07051 11.617 0.875 11.375 0.875ZM9.625 2.625H2.625C2.38301 2.625 2.1875 2.82051 2.1875 3.0625V10.3182C2.1875 10.4344 2.23398 10.5451 2.31602 10.6271L4.68535 12.9965C4.71543 13.0266 4.74961 13.0512 4.78652 13.0717V13.0977H4.84395C4.8918 13.1154 4.94238 13.125 4.99434 13.125H9.625C9.86699 13.125 10.0625 12.9295 10.0625 12.6875V3.0625C10.0625 2.82051 9.86699 2.625 9.625 2.625ZM4.78516 11.7059L3.60801 10.5273H4.78516V11.7059ZM9.07812 12.1406H5.66016V10.1992C5.66016 9.89707 5.41543 9.65234 5.11328 9.65234H3.17188V3.60938H9.07812V12.1406Z" fill="black" fill-opacity="0.88"/>
</svg>
