<svg width="16" height="16" viewBox="0 0 16 16" fill="none" xmlns="http://www.w3.org/2000/svg">
<path d="M14.722 7.59733C14.1727 6.44014 13.519 5.49639 12.761 4.76607L11.966 5.56107C12.6143 6.18061 13.179 6.99108 13.6673 8.00045C12.3673 10.6911 10.522 11.9692 8.00009 11.9692C7.24311 11.9692 6.54587 11.8526 5.90837 11.6195L5.04697 12.4809C5.93238 12.8898 6.91676 13.0942 8.00009 13.0942C11.0032 13.0942 13.2438 11.5301 14.722 8.40201C14.7814 8.27621 14.8122 8.1388 14.8122 7.99967C14.8122 7.86054 14.7814 7.72313 14.722 7.59733ZM13.7287 2.58732L13.0626 1.92045C13.051 1.90883 13.0372 1.89961 13.022 1.89332C13.0068 1.88703 12.9906 1.88379 12.9742 1.88379C12.9577 1.88379 12.9415 1.88703 12.9263 1.89332C12.9111 1.89961 12.8973 1.90883 12.8857 1.92045L11.1768 3.62857C10.2346 3.14732 9.17571 2.9067 8.00009 2.9067C4.99696 2.9067 2.75634 4.47076 1.27822 7.59889C1.2188 7.7247 1.18799 7.8621 1.18799 8.00123C1.18799 8.14036 1.2188 8.27777 1.27822 8.40357C1.86874 9.64733 2.57967 10.6443 3.41103 11.3944L1.75759 13.0473C1.73417 13.0708 1.72101 13.1025 1.72101 13.1357C1.72101 13.1688 1.73417 13.2006 1.75759 13.224L2.42462 13.8911C2.44806 13.9145 2.47984 13.9277 2.51298 13.9277C2.54612 13.9277 2.5779 13.9145 2.60134 13.8911L13.7287 2.7642C13.7403 2.75259 13.7495 2.7388 13.7558 2.72363C13.7621 2.70846 13.7653 2.69219 13.7653 2.67576C13.7653 2.65934 13.7621 2.64307 13.7558 2.62789C13.7495 2.61272 13.7403 2.59893 13.7287 2.58732ZM2.3329 8.00045C3.63447 5.30983 5.47978 4.0317 8.00009 4.0317C8.85228 4.0317 9.62712 4.17795 10.3301 4.47529L9.23165 5.57373C8.71145 5.29617 8.1158 5.19316 7.5326 5.2799C6.94939 5.36663 6.4095 5.63851 5.99258 6.05544C5.57565 6.47236 5.30377 7.01225 5.21704 7.59546C5.1303 8.17867 5.23331 8.77431 5.51087 9.29451L4.20743 10.5979C3.48603 9.96123 2.86415 9.09858 2.3329 8.00045ZM6.18759 8.00045C6.18786 7.72493 6.25313 7.45335 6.37808 7.20779C6.50303 6.96223 6.68414 6.7496 6.9067 6.58718C7.12926 6.42477 7.387 6.31714 7.65898 6.27305C7.93095 6.22895 8.20949 6.24964 8.47196 6.33342L6.27056 8.53483C6.21538 8.36208 6.18739 8.1818 6.18759 8.00045Z" fill="black" fill-opacity="0.25"/>
<path d="M7.93773 9.75031C7.88367 9.75031 7.83039 9.74781 7.77758 9.74297L6.95227 10.5683C7.44865 10.7584 7.98948 10.8006 8.50937 10.6899C9.02926 10.5792 9.50595 10.3203 9.8818 9.94439C10.2577 9.56853 10.5166 9.09185 10.6273 8.57196C10.738 8.05207 10.6958 7.51124 10.5057 7.01485L9.68038 7.84016C9.68523 7.89297 9.68773 7.94626 9.68773 8.00032C9.68785 8.23017 9.64267 8.45778 9.55477 8.67016C9.46687 8.88253 9.33797 9.0755 9.17544 9.23803C9.01291 9.40055 8.81995 9.52945 8.60757 9.61735C8.3952 9.70526 8.16758 9.75044 7.93773 9.75031Z" fill="black" fill-opacity="0.25"/>
</svg>
