<svg width="14" height="14" viewBox="0 0 14 14" fill="none" xmlns="http://www.w3.org/2000/svg">
<path d="M12.8818 6.64727C11.5857 3.91699 9.62651 2.54297 7.00014 2.54297C4.37241 2.54297 2.41459 3.91699 1.1185 6.64863C1.06651 6.75871 1.03955 6.87894 1.03955 7.00068C1.03955 7.12242 1.06651 7.24265 1.1185 7.35273C2.41459 10.083 4.37377 11.457 7.00014 11.457C9.62787 11.457 11.5857 10.083 12.8818 7.35137C12.9871 7.12988 12.9871 6.87285 12.8818 6.64727ZM7.00014 10.4727C4.79487 10.4727 3.18022 9.3543 2.04135 7C3.18022 4.6457 4.79487 3.52734 7.00014 3.52734C9.20541 3.52734 10.8201 4.6457 11.9589 7C10.8214 9.3543 9.20678 10.4727 7.00014 10.4727ZM6.94545 4.59375C5.61655 4.59375 4.5392 5.67109 4.5392 7C4.5392 8.32891 5.61655 9.40625 6.94545 9.40625C8.27436 9.40625 9.3517 8.32891 9.3517 7C9.3517 5.67109 8.27436 4.59375 6.94545 4.59375ZM6.94545 8.53125C6.09916 8.53125 5.4142 7.84629 5.4142 7C5.4142 6.15371 6.09916 5.46875 6.94545 5.46875C7.79174 5.46875 8.4767 6.15371 8.4767 7C8.4767 7.84629 7.79174 8.53125 6.94545 8.53125Z" fill="black" fill-opacity="0.88"/>
</svg>
