<svg width="16" height="16" viewBox="0 0 16 16" fill="none" xmlns="http://www.w3.org/2000/svg">
<path d="M14.722 7.59688C13.2407 4.47656 11.0017 2.90625 8.00009 2.90625C4.99697 2.90625 2.75947 4.47656 1.27822 7.59844C1.2188 7.72425 1.18799 7.86165 1.18799 8.00078C1.18799 8.13991 1.2188 8.27732 1.27822 8.40312C2.75947 11.5234 4.99853 13.0938 8.00009 13.0938C11.0032 13.0938 13.2407 11.5234 14.722 8.40156C14.8423 8.14844 14.8423 7.85469 14.722 7.59688ZM8.00009 11.9688C5.47978 11.9688 3.63447 10.6906 2.3329 8C3.63447 5.30938 5.47978 4.03125 8.00009 4.03125C10.5204 4.03125 12.3657 5.30938 13.6673 8C12.3673 10.6906 10.522 11.9688 8.00009 11.9688ZM7.93759 5.25C6.41884 5.25 5.18759 6.48125 5.18759 8C5.18759 9.51875 6.41884 10.75 7.93759 10.75C9.45634 10.75 10.6876 9.51875 10.6876 8C10.6876 6.48125 9.45634 5.25 7.93759 5.25ZM7.93759 9.75C6.9704 9.75 6.18759 8.96719 6.18759 8C6.18759 7.03281 6.9704 6.25 7.93759 6.25C8.90478 6.25 9.68759 7.03281 9.68759 8C9.68759 8.96719 8.90478 9.75 7.93759 9.75Z" fill="black" fill-opacity="0.25"/>
</svg>
