<svg width="14" height="14" viewBox="0 0 14 14" fill="none" xmlns="http://www.w3.org/2000/svg">
<g clip-path="url(#clip0_3008_14428)">
<path d="M6.34383 7C6.34383 7.17405 6.41297 7.34097 6.53604 7.46404C6.65911 7.58711 6.82603 7.65625 7.00008 7.65625C7.17413 7.65625 7.34105 7.58711 7.46412 7.46404C7.58719 7.34097 7.65633 7.17405 7.65633 7C7.65633 6.82595 7.58719 6.65903 7.46412 6.53596C7.34105 6.41289 7.17413 6.34375 7.00008 6.34375C6.82603 6.34375 6.65911 6.41289 6.53604 6.53596C6.41297 6.65903 6.34383 6.82595 6.34383 7ZM9.0782 7C9.0782 7.17405 9.14734 7.34097 9.27041 7.46404C9.39349 7.58711 9.5604 7.65625 9.73445 7.65625C9.9085 7.65625 10.0754 7.58711 10.1985 7.46404C10.3216 7.34097 10.3907 7.17405 10.3907 7C10.3907 6.82595 10.3216 6.65903 10.1985 6.53596C10.0754 6.41289 9.9085 6.34375 9.73445 6.34375C9.5604 6.34375 9.39349 6.41289 9.27041 6.53596C9.14734 6.65903 9.0782 6.82595 9.0782 7ZM3.60945 7C3.60945 7.17405 3.67859 7.34097 3.80166 7.46404C3.92473 7.58711 4.09165 7.65625 4.2657 7.65625C4.43975 7.65625 4.60667 7.58711 4.72974 7.46404C4.85281 7.34097 4.92195 7.17405 4.92195 7C4.92195 6.82595 4.85281 6.65903 4.72974 6.53596C4.60667 6.41289 4.43975 6.34375 4.2657 6.34375C4.09165 6.34375 3.92473 6.41289 3.80166 6.53596C3.67859 6.65903 3.60945 6.82595 3.60945 7ZM12.6493 4.62656C12.3403 3.89238 11.8973 3.2334 11.3327 2.66738C10.772 2.10464 10.1064 1.65733 9.37352 1.35078C8.62156 1.03496 7.82312 0.875 7.00008 0.875H6.97273C6.14422 0.879102 5.34168 1.04316 4.58699 1.36582C3.86041 1.67552 3.20102 2.12362 2.64559 2.68516C2.08641 3.2498 1.64754 3.90605 1.34402 4.6375C1.02957 5.39492 0.870976 6.20019 0.875078 7.02871C0.879717 7.97818 1.10434 8.91366 1.53133 9.76172V11.8398C1.53133 12.0066 1.59759 12.1666 1.71553 12.2845C1.83347 12.4025 1.99344 12.4688 2.16023 12.4688H4.23973C5.08778 12.8957 6.02326 13.1204 6.97273 13.125H7.00144C7.82039 13.125 8.61473 12.9664 9.36258 12.6561C10.0917 12.3532 10.7549 11.9111 11.3149 11.3545C11.8796 10.7953 12.3239 10.1418 12.6343 9.41309C12.9569 8.6584 13.121 7.85586 13.1251 7.02734C13.1292 6.19473 12.9679 5.38672 12.6493 4.62656ZM10.5835 10.6148C9.62508 11.5637 8.35359 12.0859 7.00008 12.0859H6.97684C6.15242 12.0818 5.33348 11.8768 4.61023 11.4912L4.49539 11.4297H2.57039V9.50469L2.50887 9.38984C2.12332 8.6666 1.91824 7.84766 1.91414 7.02324C1.90867 5.66016 2.42957 4.38047 3.38523 3.4166C4.33953 2.45273 5.61512 1.91953 6.9782 1.91406H7.00144C7.68504 1.91406 8.34812 2.04668 8.97293 2.30918C9.5827 2.56484 10.1296 2.93262 10.5999 3.40293C11.0688 3.87187 11.438 4.42012 11.6936 5.02988C11.9589 5.66152 12.0915 6.33145 12.0887 7.02324C12.0805 8.38496 11.546 9.66055 10.5835 10.6148Z" fill="black" fill-opacity="0.88"/>
</g>
<defs>
<clipPath id="clip0_3008_14428">
<rect width="14" height="14" fill="white"/>
</clipPath>
</defs>
</svg>
