<svg width="12" height="12" viewBox="0 0 12 12" fill="none" xmlns="http://www.w3.org/2000/svg" aria-hidden="true" class="icon icon--minus-square">
  <path d="M3.75 5.625C3.75 5.57656 3.79219 5.53438 3.84375 5.53438H8.15625C8.20781 5.53438 8.25 5.57656 8.25 5.625V6.375C8.25 6.42344 8.20781 6.46562 8.15625 6.46562H3.84375C3.79219 6.46562 3.75 6.42344 3.75 6.375V5.625Z" fill="black" fill-opacity="0.88"/>
  <path d="M10.3125 1.3125H1.6875C1.48008 1.3125 1.3125 1.48008 1.3125 1.6875V10.3125C1.3125 10.5199 1.48008 10.6875 1.6875 10.6875H10.3125C10.5199 10.6875 10.6875 10.5199 10.6875 10.3125V1.6875C10.6875 1.48008 10.5199 1.3125 10.3125 1.3125ZM9.84375 9.84375H2.15625V2.15625H9.84375V9.84375Z" fill="black" fill-opacity="0.88"/>
</svg>
