<svg width="14" height="14" viewBox="0 0 14 14" fill="none" xmlns="http://www.w3.org/2000/svg">
<path d="M12.6875 2.1875H1.3125C1.07051 2.1875 0.875 2.38301 0.875 2.625V11.375C0.875 11.617 1.07051 11.8125 1.3125 11.8125H12.6875C12.9295 11.8125 13.125 11.617 13.125 11.375V2.625C13.125 2.38301 12.9295 2.1875 12.6875 2.1875ZM12.1406 10.8281H1.85938V10.2826L3.75293 8.03633L5.80508 10.4699L8.99746 6.68555L12.1406 10.4125V10.8281ZM12.1406 9.05352L9.08086 5.425C9.03711 5.37305 8.95781 5.37305 8.91406 5.425L5.80508 9.11094L3.83633 6.77715C3.79258 6.7252 3.71328 6.7252 3.66953 6.77715L1.85938 8.92363V3.17188H12.1406V9.05352ZM4.15625 6.23438C4.31425 6.23438 4.4707 6.20326 4.61667 6.14279C4.76264 6.08233 4.89527 5.99371 5.00699 5.88199C5.11871 5.77027 5.20733 5.63764 5.26779 5.49167C5.32826 5.3457 5.35938 5.18925 5.35938 5.03125C5.35938 4.87325 5.32826 4.7168 5.26779 4.57083C5.20733 4.42486 5.11871 4.29223 5.00699 4.18051C4.89527 4.06879 4.76264 3.98017 4.61667 3.91971C4.4707 3.85924 4.31425 3.82812 4.15625 3.82812C3.83716 3.82813 3.53114 3.95488 3.30551 4.18051C3.07988 4.40614 2.95313 4.71216 2.95312 5.03125C2.95313 5.35034 3.07988 5.65636 3.30551 5.88199C3.53114 6.10762 3.83716 6.23437 4.15625 6.23438V6.23438ZM4.15625 4.64844C4.36816 4.64844 4.53906 4.81934 4.53906 5.03125C4.53906 5.24316 4.36816 5.41406 4.15625 5.41406C3.94434 5.41406 3.77344 5.24316 3.77344 5.03125C3.77344 4.81934 3.94434 4.64844 4.15625 4.64844Z" fill="black" fill-opacity="0.88"/>
</svg>
