<svg width="14" height="14" viewBox="0 0 14 14" fill="none" xmlns="http://www.w3.org/2000/svg">
<path d="M11.375 6.34375H4.53906V3.28125C4.53906 2.85879 4.88223 2.51562 5.30469 2.51562H8.69531C9.11777 2.51562 9.46094 2.85879 9.46094 3.28125V4.21094C9.46094 4.27109 9.51016 4.32031 9.57031 4.32031H10.3359C10.3961 4.32031 10.4453 4.27109 10.4453 4.21094V3.28125C10.4453 2.31465 9.66191 1.53125 8.69531 1.53125H5.30469C4.33809 1.53125 3.55469 2.31465 3.55469 3.28125V6.34375H2.625C2.38301 6.34375 2.1875 6.53926 2.1875 6.78125V12.0312C2.1875 12.2732 2.38301 12.4688 2.625 12.4688H11.375C11.617 12.4688 11.8125 12.2732 11.8125 12.0312V6.78125C11.8125 6.53926 11.617 6.34375 11.375 6.34375ZM10.8281 11.4844H3.17188V7.32812H10.8281V11.4844ZM6.61719 9.58398V10.3086C6.61719 10.3687 6.66641 10.418 6.72656 10.418H7.27344C7.33359 10.418 7.38281 10.3687 7.38281 10.3086V9.58398C7.49567 9.50296 7.57991 9.38821 7.6234 9.25626C7.66689 9.12431 7.66739 8.98197 7.62483 8.84972C7.58227 8.71746 7.49885 8.60213 7.38656 8.52031C7.27428 8.43848 7.13893 8.3944 7 8.3944C6.86107 8.3944 6.72572 8.43848 6.61344 8.52031C6.50115 8.60213 6.41773 8.71746 6.37517 8.84972C6.33261 8.98197 6.33311 9.12431 6.3766 9.25626C6.42009 9.38821 6.50433 9.50296 6.61719 9.58398Z" fill="black" fill-opacity="0.88"/>
</svg>
