<?xml version="1.0" encoding="utf-8"?><svg xmlns="http://www.w3.org/2000/svg" xmlns:xlink="http://www.w3.org/1999/xlink"><symbol viewBox="0 0 16 16" id="car" xmlns="http://www.w3.org/2000/svg"><g clip-path="url(#aclip0_157_57143)"><path d="M5.643 11.426h4.714a.143.143 0 00.143-.143v-1.5a.143.143 0 00-.143-.143h-.714a.143.143 0 00-.143.143v.643h-3v-.643a.143.143 0 00-.143-.143h-.714a.143.143 0 00-.143.143v1.5c0 .078.065.143.143.143zm6.072-2.197a.714.714 0 101.428 0 .714.714 0 00-1.428 0zm4.267-2.993l-.423-.739a.143.143 0 00-.194-.052l-.906.529-1.398-3.86a1.14 1.14 0 00-1.088-.794H4.236c-.62 0-1.17.4-1.36.991L1.542 5.976l-.907-.529a.143.143 0 00-.195.052l-.423.737a.14.14 0 00.052.193l1.079.629-.26.714a.51.51 0 00-.032.179v6.218c0 .28.211.507.47.507h1.207c.22 0 .41-.166.457-.399l.138-.673h9.743l.137.674a.48.48 0 00.457.398h1.208c.258 0 .47-.227.47-.508V7.952a.51.51 0 00-.033-.179l-.259-.714 1.077-.629a.143.143 0 00.053-.193zm-2.125 1.85v4.232H2.143V8.087l.279-.767h11.157l.278.767zM4.084 2.75l.01-.023.006-.024a.142.142 0 01.136-.098h7.636l1.346 3.715H2.786l1.298-3.57zM2.857 9.23a.714.714 0 101.43 0 .714.714 0 00-1.43 0z"/></g><defs><clipPath id="aclip0_157_57143"><path d="M0 0h16v16H0z"/></clipPath></defs></symbol><symbol viewBox="0 0 16 16" id="cart" xmlns="http://www.w3.org/2000/svg"><path d="M14.42 10.967H5.117l.467-.951 7.763-.014a.543.543 0 00.534-.447l1.075-6.018a.543.543 0 00-.533-.639l-9.875-.032-.084-.397a.555.555 0 00-.54-.438H1.507a.552.552 0 100 1.103h1.968l.368 1.754.908 4.395-1.169 1.908a.546.546 0 00-.047.575.55.55 0 00.493.303h.98a1.604 1.604 0 001.281 2.567 1.604 1.604 0 001.282-2.567h2.518a1.604 1.604 0 102.884.964c0-.349-.116-.688-.322-.964h1.77a.553.553 0 00.552-.552.553.553 0 00-.553-.55zM4.778 3.953l8.997.03-.881 4.934-7.067.013-1.049-4.977zm1.514 9.574a.495.495 0 010-.988.495.495 0 010 .988zm5.08 0a.495.495 0 010-.988.495.495 0 010 .988z"/></symbol><symbol viewBox="0 0 16 16" id="chat" xmlns="http://www.w3.org/2000/svg"><g clip-path="url(#cclip0_157_57141)"><path fill-rule="evenodd" clip-rule="evenodd" d="M14.167 6.667A4.833 4.833 0 004.55 5.97a.5.5 0 11-.99-.143A5.835 5.835 0 1114.478 9.42l.414 2.223a.5.5 0 01-.584.583l-2.222-.414c-.558.3-1.17.51-1.818.615a.5.5 0 11-.16-.988 4.8 4.8 0 001.642-.584.5.5 0 01.341-.059l1.684.314-.314-1.684a.5.5 0 01.06-.342 4.81 4.81 0 00.646-2.416zM1.833 11a3.167 3.167 0 111.584 2.743.5.5 0 00-.342-.058l-.933.174.173-.934a.5.5 0 00-.058-.342A3.15 3.15 0 011.833 11zM5 6.833a4.167 4.167 0 00-3.7 6.084l-.275 1.475a.5.5 0 00.583.583l1.475-.274A4.167 4.167 0 105 6.833z"/></g><defs><clipPath id="cclip0_157_57141"><path d="M0 0h16v16H0z"/></clipPath></defs></symbol><symbol viewBox="0 0 16 16" id="credit-card" xmlns="http://www.w3.org/2000/svg"><path fill-rule="evenodd" clip-rule="evenodd" d="M1.733 2.833a.9.9 0 00-.9.9v8.534a.9.9 0 00.9.9h12.534a.9.9 0 00.9-.9V3.733a.9.9 0 00-.9-.9H1.733zm.1 2.667V3.833h12.334V5.5H1.833zm0 1h12.334v5.667H1.833V6.5zM3.5 9.333a1.167 1.167 0 112.333 0 1.167 1.167 0 01-2.333 0z"/></symbol><symbol viewBox="0 0 16 16" id="dollar" xmlns="http://www.w3.org/2000/svg"><path d="M8 1a7 7 0 10.001 14.001A7 7 0 008 1zm0 12.813A5.813 5.813 0 018 2.187a5.813 5.813 0 010 11.626zm.745-6.176l-.397-.092V5.447c.594.081.961.453 1.024.91.008.062.06.107.123.107h.702a.127.127 0 00.125-.137c-.095-.974-.897-1.599-1.967-1.707v-.51a.125.125 0 00-.125-.126h-.44a.125.125 0 00-.124.125v.516c-1.107.108-1.972.719-1.972 1.86 0 1.056.778 1.565 1.595 1.76l.386.099v2.23c-.69-.093-1.078-.461-1.158-.958a.124.124 0 00-.123-.104h-.722a.125.125 0 00-.125.136c.07.86.722 1.65 2.112 1.752v.49c0 .07.057.126.125.126h.444a.126.126 0 00.125-.127l-.003-.495c1.223-.108 2.098-.763 2.098-1.938-.001-1.084-.69-1.568-1.703-1.818zm-1.072-.253a2.286 2.286 0 01-.234-.078c-.528-.19-.773-.498-.773-.895 0-.567.43-.89 1.007-.964v1.937zm.675 3.194V8.49c.049.014.093.025.138.034.739.225.987.538.987 1.018 0 .61-.459.978-1.125 1.037z" fill-opacity=".88"/></symbol><symbol viewBox="0 0 12 12" id="down-chevron" xmlns="http://www.w3.org/2000/svg"><path d="M10.36 3h-.88c-.06 0-.116.03-.15.077L6 7.667l-3.33-4.59A.188.188 0 002.52 3h-.88a.094.094 0 00-.076.149l4.132 5.696c.15.207.457.207.606 0l4.132-5.696A.093.093 0 0010.36 3z"/></symbol><symbol viewBox="0 0 16 16" id="heart" xmlns="http://www.w3.org/2000/svg"><path d="M14.422 4.43a4.065 4.065 0 00-.89-1.293 4.146 4.146 0 00-2.912-1.184A4.173 4.173 0 008 2.876a4.173 4.173 0 00-2.62-.923 4.146 4.146 0 00-2.913 1.184A4.038 4.038 0 001.25 6.023c0 .52.106 1.062.317 1.614.177.461.43.94.753 1.422.513.764 1.218 1.56 2.092 2.369a23.385 23.385 0 002.947 2.301l.37.238a.502.502 0 00.54 0l.37-.238a23.68 23.68 0 002.947-2.301c.875-.808 1.58-1.605 2.092-2.37.324-.482.578-.96.753-1.421a4.52 4.52 0 00.317-1.614 3.977 3.977 0 00-.326-1.592zM8 12.73S2.437 9.168 2.437 6.024c0-1.592 1.318-2.883 2.943-2.883A2.95 2.95 0 018 4.71a2.95 2.95 0 012.62-1.569c1.625 0 2.943 1.29 2.943 2.883C13.563 9.167 8 12.731 8 12.731z"/></symbol><symbol viewBox="0 0 16 16" id="inbox" xmlns="http://www.w3.org/2000/svg"><path d="M13.832 6.974l-.004-.013-1.753-4.454a.603.603 0 00-.575-.425H4.394a.603.603 0 00-.577.43l-1.639 4.41-.004.011-.003.013a.58.58 0 00-.016.23.965.965 0 00-.003.076v5.717a.951.951 0 00.95.95h9.8c.523 0 .95-.427.951-.95V7.252l-.001-.058a.608.608 0 00-.02-.22zM9.21 6.302l-.005.245C9.192 7.25 8.708 7.721 8 7.721c-.345 0-.642-.111-.856-.322-.214-.211-.331-.505-.337-.852l-.005-.245H3.586l1.242-3.02h6.238l1.276 3.02H9.21zm-5.86 1.2h2.458c.38.892 1.188 1.419 2.194 1.419.526 0 1.015-.147 1.41-.425a2.31 2.31 0 00.793-.994h2.445v5.217h-9.3V7.502z"/></symbol><symbol viewBox="0 0 16 16" id="line-chart" xmlns="http://www.w3.org/2000/svg"><path d="M13.875 12.375H3.125v-9.75A.125.125 0 003 2.5h-.875A.125.125 0 002 2.625v10.75c0 .069.056.125.125.125h11.75a.125.125 0 00.125-.125V12.5a.125.125 0 00-.125-.125zm-9.097-2.41a.125.125 0 00.177 0l2.16-2.15L9.11 9.82a.125.125 0 00.177 0l4.303-4.301a.125.125 0 000-.177l-.619-.619a.125.125 0 00-.176 0L9.2 8.316 7.21 6.312a.125.125 0 00-.177 0L4.16 9.168a.125.125 0 000 .177l.617.62z" fill-opacity=".88"/></symbol><symbol viewBox="0 0 16 16" id="logout" xmlns="http://www.w3.org/2000/svg"><path d="M13.562 11.437h-1.098a.246.246 0 00-.193.09 5.53 5.53 0 01-4.266 2.003 5.512 5.512 0 01-3.915-1.62 5.52 5.52 0 01-1.187-1.758A5.477 5.477 0 012.468 8 5.505 5.505 0 014.09 4.09a5.529 5.529 0 013.916-1.621 5.53 5.53 0 014.266 2.003c.046.058.118.09.192.09h1.098c.099 0 .16-.109.105-.192a6.721 6.721 0 00-5.678-3.09A6.711 6.711 0 001.28 8.068a6.723 6.723 0 006.725 6.65 6.723 6.723 0 005.66-3.09.125.125 0 00-.104-.191zm1.39-3.536l-2.218-1.75a.125.125 0 00-.203.098v1.188H7.625a.125.125 0 00-.125.125v.875c0 .068.056.125.125.125h4.906v1.187c0 .105.122.164.203.098l2.217-1.75a.125.125 0 000-.196z" fill-opacity=".88"/></symbol><symbol viewBox="0 0 12 12" id="mail" xmlns="http://www.w3.org/2000/svg"><path d="M11.571 1.283H.43a.428.428 0 00-.43.429v8.571c0 .237.192.429.429.429H11.57a.428.428 0 00.429-.429V1.712a.428.428 0 00-.429-.429zm-.535 1.484v6.98H.964v-6.98l-.37-.288.527-.676.573.446h8.613l.573-.446.527.676-.371.288zm-.729-.52L6 5.596 1.693 2.247l-.573-.445-.527.676.37.288 4.575 3.557a.75.75 0 00.92 0l4.578-3.556.37-.288-.527-.676-.572.444z"/></symbol><symbol viewBox="0 0 12 12" id="mark" xmlns="http://www.w3.org/2000/svg"><path d="M10.589 3.016a4.854 4.854 0 00-1.07-1.55A5.023 5.023 0 006 .041c-.672 0-1.323.129-1.936.382a4.989 4.989 0 00-1.583 1.042 4.87 4.87 0 00-1.07 1.55 4.757 4.757 0 00-.394 1.901c0 .946.226 1.887.671 2.795a8.86 8.86 0 001.487 2.118 11.96 11.96 0 002.523 2.049.587.587 0 00.6 0 11.96 11.96 0 002.523-2.05 8.82 8.82 0 001.487-2.117 6.278 6.278 0 00.673-2.794c0-.659-.132-1.299-.393-1.901zM6 10.932c-.882-.561-4.018-2.783-4.018-6.015 0-1.043.417-2.023 1.174-2.763A4.05 4.05 0 016 1.005c1.076 0 2.085.409 2.845 1.15a3.831 3.831 0 011.173 2.762c0 3.232-3.135 5.454-4.018 6.015zm0-8.266A2.357 2.357 0 106 7.38a2.357 2.357 0 000-4.714zm1.06 3.418a1.494 1.494 0 01-1.06.44 1.495 1.495 0 01-1.386-.927 1.495 1.495 0 01.326-1.635A1.49 1.49 0 016 3.523c.4 0 .777.156 1.06.44.285.283.44.66.44 1.06s-.155.777-.44 1.06z"/></symbol><symbol viewBox="0 0 16 16" id="menu" xmlns="http://www.w3.org/2000/svg"><path d="M14.125 2.5H1.875a.125.125 0 00-.125.125v1c0 .069.056.125.125.125h12.25a.125.125 0 00.125-.125v-1a.125.125 0 00-.125-.125zm0 9.75H1.875a.125.125 0 00-.125.125v1c0 .069.056.125.125.125h12.25a.125.125 0 00.125-.125v-1a.125.125 0 00-.125-.125zm0-4.875H1.875a.125.125 0 00-.125.125v1c0 .069.056.125.125.125h12.25a.125.125 0 00.125-.125v-1a.125.125 0 00-.125-.125z"/></symbol><symbol viewBox="0 0 12 12" id="phone" xmlns="http://www.w3.org/2000/svg"><path d="M10.89 2.341L9.464.916a.921.921 0 00-1.308 0L6.62 2.45a.924.924 0 000 1.31l1.2 1.201a5.43 5.43 0 01-1.157 1.705 5.44 5.44 0 01-1.703 1.16l-1.2-1.202a.921.921 0 00-1.308 0L.915 8.158a.924.924 0 000 1.31l1.425 1.425a1.603 1.603 0 001.385.446c1.773-.292 3.533-1.236 4.954-2.656 1.42-1.422 2.362-3.182 2.657-4.957a1.596 1.596 0 00-.446-1.385zm-.504 1.226C10.126 5.146 9.276 6.72 7.997 8c-1.279 1.279-2.853 2.128-4.432 2.39a.63.63 0 01-.546-.178l-1.4-1.4 1.484-1.484 1.605 1.607.012.012.29-.107a6.446 6.446 0 003.825-3.828l.108-.29-1.618-1.616 1.484-1.485 1.4 1.4a.627.627 0 01.177.546z"/></symbol><symbol viewBox="0 0 16 16" id="search" xmlns="http://www.w3.org/2000/svg"><path d="M14.213 13.352l-4.058-4.058c.63-.814.97-1.81.97-2.857a4.66 4.66 0 00-1.373-3.314A4.653 4.653 0 006.437 1.75a4.66 4.66 0 00-3.314 1.373A4.65 4.65 0 001.75 6.437c0 1.252.49 2.43 1.373 3.315a4.65 4.65 0 003.314 1.373c1.047 0 2.041-.34 2.855-.969l4.058 4.056a.129.129 0 00.181 0l.681-.68a.129.129 0 000-.18zm-5.3-4.44a3.481 3.481 0 01-2.476 1.025 3.481 3.481 0 01-2.475-1.024 3.481 3.481 0 01-1.025-2.476 3.48 3.48 0 011.026-2.475 3.481 3.481 0 012.474-1.025c.935 0 1.815.363 2.475 1.026a3.481 3.481 0 011.025 2.474c0 .935-.364 1.815-1.024 2.475z"/></symbol><symbol viewBox="0 0 16 16" id="user" xmlns="http://www.w3.org/2000/svg"><path d="M13.414 11.931a5.843 5.843 0 00-1.26-1.867 5.868 5.868 0 00-1.867-1.26l-.019-.007a3.874 3.874 0 10-4.537.002l-.019.007c-.7.296-1.328.719-1.867 1.26a5.87 5.87 0 00-1.72 4.025.125.125 0 00.125.128h.937a.125.125 0 00.125-.122 4.658 4.658 0 011.372-3.192A4.657 4.657 0 018 9.53c1.253 0 2.43.488 3.315 1.374a4.659 4.659 0 011.372 3.192.124.124 0 00.125.122h.938a.125.125 0 00.125-.128 5.825 5.825 0 00-.461-2.16zM8 8.344a2.67 2.67 0 01-1.9-.788 2.67 2.67 0 01-.788-1.9c0-.717.28-1.392.788-1.9A2.67 2.67 0 018 2.97c.717 0 1.392.28 1.9.787a2.67 2.67 0 01.787 1.9 2.67 2.67 0 01-.787 1.9 2.67 2.67 0 01-1.9.788z" fill-opacity=".88"/></symbol></svg>